<?xml version="1.0" standalone="no"?>
<!DOCTYPE svg PUBLIC "-//W3C//DTD SVG 20010904//EN"
 "http://www.w3.org/TR/2001/REC-SVG-20010904/DTD/svg10.dtd">
<svg version="1.0" xmlns="http://www.w3.org/2000/svg"
 width="300.000000pt" height="110.000000pt" viewBox="0 0 300.000000 110.000000"
 preserveAspectRatio="xMidYMid meet">
<metadata>
Created by potrace 1.10, written by Peter Selinger 2001-2011
</metadata>
<g transform="translate(0.000000,110.000000) scale(0.100000,-0.100000)"
fill="#000000" stroke="none">
<path d="M1311 796 c-24 -28 1 -63 40 -58 4 1 -8 -29 -26 -66 -52 -104 -96
-223 -93 -246 2 -16 10 -21 32 -21 24 0 33 7 50 39 19 36 25 40 64 41 38 2 45
-1 55 -24 25 -59 61 -77 87 -45 11 13 8 29 -20 97 -34 84 -75 178 -92 211 -7
12 -7 16 0 12 5 -3 21 3 33 13 20 16 22 23 13 38 -15 24 -125 31 -143 9z m129
-21 c0 -12 -13 -15 -60 -15 -47 0 -60 3 -60 15 0 12 13 15 60 15 47 0 60 -3
60 -15z m7 -193 c72 -176 68 -162 45 -162 -14 0 -24 13 -36 45 l-18 45 -62 0
-62 0 -14 -42 c-11 -31 -21 -44 -37 -46 -21 -3 -20 2 23 105 25 59 53 125 61
146 26 64 43 49 100 -91z"/>
<path d="M1354 608 c-10 -29 -20 -55 -22 -59 -2 -4 20 -9 48 -11 27 -1 50 -3
50 -3 0 0 -11 26 -24 58 -13 31 -25 60 -28 62 -2 3 -13 -19 -24 -47z m36 -39
c0 -5 -7 -9 -15 -9 -9 0 -12 6 -9 15 6 15 24 11 24 -6z"/>
<path d="M1959 794 c-9 -11 -10 -20 -2 -32 15 -24 134 -29 153 -7 11 13 10 19
-5 35 -24 26 -125 29 -146 4z m139 -21 c3 -10 -14 -13 -62 -13 -53 0 -66 3
-66 15 0 13 11 15 62 13 38 -2 63 -8 66 -15z"/>
<path d="M335 733 c-43 -11 -45 -20 -45 -167 0 -97 4 -146 12 -154 15 -15 172
-16 200 -1 14 8 23 8 31 0 23 -23 52 -11 78 32 21 34 32 43 50 41 13 -1 34 -3
47 -3 12 -1 22 -7 22 -15 0 -7 9 -24 19 -38 19 -24 25 -25 146 -27 147 -2 165
2 165 34 0 28 -16 35 -83 35 -29 0 -57 4 -64 8 -8 5 -13 46 -15 121 -3 96 -6
116 -20 125 -13 8 -23 8 -35 0 -15 -9 -19 -31 -23 -129 l-5 -118 -16 34 c-9
19 -29 66 -44 104 -37 92 -53 115 -80 115 -28 0 -42 -21 -85 -128 -32 -77 -35
-81 -47 -60 -8 15 -10 42 -6 75 5 48 3 54 -25 82 -26 26 -38 31 -80 31 -28 0
-56 2 -64 4 -7 2 -22 1 -33 -1z m162 -45 c27 -25 31 -73 7 -99 -14 -16 -14
-19 5 -38 31 -31 28 -84 -5 -110 -22 -17 -41 -21 -110 -21 l-84 0 0 145 0 145
82 0 c70 0 85 -3 105 -22z m254 -123 c33 -77 59 -141 59 -142 0 -2 -9 -3 -19
-3 -14 0 -24 13 -37 45 l-17 45 -62 0 -62 0 -17 -45 c-13 -33 -23 -45 -38 -45
-12 0 -18 5 -15 13 3 6 26 62 52 122 26 61 51 120 56 133 18 47 41 20 100
-123z m129 15 l0 -130 80 0 c64 0 80 -3 80 -15 0 -12 -18 -15 -100 -15 l-100
0 0 145 c0 138 1 145 20 145 19 0 20 -7 20 -130z"/>
<path d="M350 630 l0 -50 48 0 c27 0 55 6 64 13 49 39 16 87 -62 87 l-50 0 0
-50z m104 10 c14 -14 -3 -29 -39 -36 -30 -5 -45 8 -45 40 0 16 5 18 37 13 20
-4 41 -11 47 -17z"/>
<path d="M350 500 l0 -50 55 0 c42 0 60 5 75 20 24 24 24 29 4 58 -13 19 -24
22 -75 22 l-59 0 0 -50z m111 14 c11 -14 10 -18 -6 -30 -11 -8 -33 -13 -50
-11 -24 3 -31 8 -33 30 -3 25 -1 27 36 27 24 0 45 -6 53 -16z"/>
<path d="M648 600 l-26 -60 53 0 54 0 -26 58 c-14 31 -27 58 -27 59 -1 1 -14
-25 -28 -57z m37 -20 c3 -5 1 -10 -4 -10 -6 0 -11 5 -11 10 0 6 2 10 4 10 3 0
8 -4 11 -10z"/>
<path d="M996 718 c-27 -22 -12 -50 31 -59 53 -11 54 -13 52 -125 -1 -108 7
-134 40 -134 34 0 41 22 41 131 0 115 1 118 53 128 39 8 57 35 37 55 -11 10
-47 15 -124 18 -92 3 -112 1 -130 -14z m244 -23 c0 -11 -12 -15 -50 -15 l-50
0 0 -130 c0 -125 -1 -130 -21 -130 -19 0 -20 5 -17 130 l3 130 -52 0 c-41 0
-53 4 -53 15 0 13 20 15 120 15 100 0 120 -2 120 -15z"/>
<path d="M2195 730 c-11 -5 -30 -6 -43 -3 -41 9 -52 -12 -52 -101 0 -103 -5
-119 -41 -140 -58 -34 -88 9 -91 138 -3 72 -6 91 -20 100 -13 8 -23 8 -35 0
-15 -9 -19 -29 -21 -105 -3 -85 -4 -92 -17 -69 -9 17 -10 31 -3 49 15 40 1 87
-31 111 -24 16 -45 20 -114 20 -51 0 -89 -4 -92 -11 -4 -6 -9 -75 -11 -154 -3
-116 -1 -145 11 -155 10 -8 45 -11 108 -8 97 3 111 9 136 56 15 29 23 28 43
-8 39 -69 173 -70 225 -1 17 23 35 102 35 156 0 26 1 45 3 43 1 -1 19 -43 40
-93 62 -152 64 -155 95 -155 25 0 32 8 58 63 16 34 40 91 53 127 l24 65 5
-117 c3 -64 10 -122 16 -128 7 -7 49 -10 114 -8 87 3 105 6 114 21 9 15 7 22
-13 38 -17 14 -39 19 -86 19 -55 0 -63 2 -60 18 2 9 4 20 4 25 1 4 25 7 54 7
55 0 77 12 77 42 0 24 -30 38 -84 38 -51 0 -64 11 -40 35 13 12 31 16 70 13
47 -3 55 0 65 19 9 18 9 26 -1 38 -11 13 -36 15 -147 14 -153 -2 -142 4 -184
-104 -38 -99 -40 -98 -84 16 -30 77 -51 100 -80 89z m-361 -39 c23 -25 25 -86
4 -107 -14 -14 -13 -18 8 -39 32 -32 31 -70 -2 -100 -24 -22 -36 -25 -110 -25
l-84 0 0 145 0 145 83 0 c70 0 87 -3 101 -19z m116 -80 c0 -92 2 -102 26 -130
32 -38 72 -41 111 -7 27 23 28 28 31 130 4 99 5 106 24 106 20 0 20 -4 16
-103 -6 -144 -35 -187 -124 -187 -89 0 -124 56 -124 200 0 83 1 90 20 90 19 0
20 -7 20 -99z m309 11 c19 -48 41 -102 49 -121 l14 -34 47 119 c37 96 51 120
68 122 19 3 16 -9 -39 -142 -44 -105 -66 -146 -78 -146 -12 0 -32 39 -73 138
-31 76 -57 141 -57 145 0 4 8 7 18 7 12 0 26 -24 51 -88z m421 73 c0 -12 -16
-15 -80 -15 l-80 0 0 -50 0 -50 70 0 c56 0 70 -3 70 -15 0 -12 -14 -15 -70
-15 l-70 0 0 -50 0 -50 85 0 c69 0 85 -3 85 -15 0 -12 -18 -15 -100 -15 l-100
0 0 145 0 145 95 0 c78 0 95 -3 95 -15z"/>
<path d="M1680 630 l0 -50 53 0 c40 0 58 5 70 18 40 44 9 82 -69 82 l-54 0 0
-50z m100 15 c10 -12 10 -18 0 -30 -14 -17 -69 -21 -71 -5 -1 6 -2 16 -3 23
-4 28 53 38 74 12z"/>
<path d="M1680 500 l0 -50 58 0 c63 0 92 18 92 56 0 34 -21 44 -87 44 l-63 0
0 -50z m120 10 c8 -15 7 -21 -7 -28 -26 -14 -88 -9 -87 6 1 6 2 19 3 27 2 24
78 20 91 -5z"/>
</g>
</svg>
